#!OML:ASF F:\VICON\USERDATA\INSTALL\rory3\rory3.ASF
:FULLY-SPECIFIED
:DEGREES
2245
root -2.0442 17.7964 -3.46749 187.79 76.6681 170.064
lowerback 13.4962 2.7325 -1.13811
upperback 7.61637 4.22599 7.35719
thorax -0.143178 2.21538 7.85477
lowerneck -11.9918 -11.882 -7.22225
upperneck 33.6641 -15.9602 6.25203
head 14.8159 -6.48722 1.22795
rclavicle -7.15625e-014 4.13472e-014
rhumerus 6.09629 -9.20813 -87.2516
rradius 38.6948
rwrist -22.5188
rhand -21.3703 -17.4366
rfingers 7.12502
rthumb 5.01685 -47.3572
lclavicle -7.15625e-014 4.13472e-014
lhumerus -6.08803 -47.7686 93.6632
lradius 57.0696
lwrist 74.9618
lhand -24.029 46.5789
lfingers 7.12502
lthumb 2.44933 -1003.46
rfemur -32.2942 -1.90959 12.1881
rtibia 36.1089
rfoot -19.6357 -6.03657
rtoes 6.60809
lfemur -31.4843 1.43994 -23.7913
ltibia 29.7467
lfoot -10.6173 4.08712
ltoes -14.3603
2246
root -2.07242 17.7941 -3.43643 188.866 76.9473 171.144
lowerback 13.5605 2.57745 -1.38993
upperback 7.59483 3.99868 7.43832
thorax -0.185657 2.09514 8.12297
lowerneck -12.1293 -11.6452 -7.33367
upperneck 33.8162 -15.5593 6.11987
head 14.8772 -6.34219 1.25876
rclavicle -7.95139e-015 1.59028e-015
rhumerus 6.2541 -10.7602 -86.5183
rradius 38.6286
rwrist -22.2963
rhand -22.0675 -17.488
rfingers 7.12502
rthumb 4.34359 -47.4234
lclavicle -7.95139e-015 1.59028e-015
lhumerus -5.38557 -49.151 93.7683
lradius 57.2699
lwrist 74.2815
lhand -22.2583 45.9549
lfingers 7.12502
lthumb 4.15931 -1004.11
rfemur -32.5408 -2.11816 12.6481
rtibia 36.0814
rfoot -19.3602 -5.74939
rtoes 5.93246
lfemur -31.6806 1.47468 -23.3743
ltibia 29.8346
lfoot -10.5675 4.41593
ltoes -13.7985
2247
root -2.08499 17.8003 -3.40771 189.901 77.2433 172.165
lowerback 13.3945 2.43666 -1.6436
upperback 7.55387 3.77355 7.43101
thorax -0.118266 1.97115 8.30407
lowerneck -12.1091 -11.3865 -7.38037
upperneck 33.9477 -15.1843 6.12133
head 14.9046 -6.18679 1.33879
rclavicle -4.6118e-014 -3.18055e-014
rhumerus 6.29138 -12.3688 -85.8881
rradius 38.5932
rwrist -22.2715
rhand -22.9901 -17.4812
rfingers 7.12502
rthumb 3.45265 -47.4329
lclavicle -4.6118e-014 -3.18055e-014
lhumerus -4.89259 -50.74 93.8583
lradius 57.6671
lwrist 73.4875
lhand -20.3566 45.2815
lfingers 7.12502
lthumb 5.99553 -1004.82
rfemur -32.699 -2.5682 13.1581
rtibia 36.0299
rfoot -18.9815 -5.31558
rtoes 4.89257
lfemur -31.8025 1.7019 -23.0363
ltibia 29.9271
lfoot -10.59 4.54349
ltoes -13.9813
2248
root -2.09705 17.8048 -3.37949 190.152 77.5196 172.429
lowerback 13.3202 2.37485 -1.78917
upperback 7.48408 3.6527 7.23362
thorax -0.130008 1.90325 8.19088
lowerneck -12.0953 -11.2208 -7.32562
upperneck 34.0773 -14.9939 6.2021
head 14.9481 -6.0848 1.40043
rclavicle 1.11319e-014 -3.33958e-014
rhumerus 5.2143 -11.7331 -84.0674
rradius 39.786
rwrist -25.5749
rhand -25.0138 -17.8661
rfingers 7.12502
rthumb 1.49825 -47.8406
lclavicle 1.11319e-014 -3.33958e-014
lhumerus -4.24415 -53.0122 93.6771
lradius 58.2119
lwrist 72.5471
lhand -18.9661 45.1682
lfingers 7.12502
lthumb 7.33785 -1004.98
rfemur -32.7969 -3.07679 13.5231
rtibia 35.973
rfoot -18.7123 -4.92926
rtoes 5.15875
lfemur -31.8527 1.7933 -22.8612
ltibia 30.0035
lfoot -10.6555 4.71473
ltoes -13.9338
2249
root -2.12743 17.8008 -3.3495 190.246 77.6957 172.512
lowerback 13.3856 2.2614 -1.78793
upperback 7.44897 3.48469 6.9933
thorax -0.163475 1.81772 7.94824
lowerneck -12.1201 -11.0149 -7.22324
upperneck 34.0676 -14.7963 6.39359
head 14.941 -5.96704 1.49779
rclavicle -2.54444e-014 -3.97569e-014
rhumerus 5.11914 -13.4079 -83.353
rradius 40.0753
rwrist -26.463
rhand -26.4761 -17.7308
rfingers 7.12502
rthumb 0.0859053 -47.7106
lclavicle -2.54444e-014 -3.97569e-014
lhumerus -3.09744 -55.1411 93.0543
lradius 58.5947
lwrist 71.0462
lhand -16.5678 45.0955
lfingers 7.12502
lthumb 9.65234 -1005.15
rfemur -32.9838 -3.23692 13.77
rtibia 35.9205
rfoot -18.6575 -4.80525
rtoes 6.16494
lfemur -32.0079 1.73372 -22.6919
ltibia 30.0578
lfoot -10.5499 4.88193
ltoes -15.4518
2250
root -2.15637 17.8018 -3.31785 190.955 77.8056 173.226
lowerback 13.375 2.09857 -1.86926
upperback 7.47381 3.25921 6.97324
thorax -0.0990697 1.70046 8.00965
lowerneck -12.2339 -10.8106 -7.24026
upperneck 34.0489 -14.5087 6.39676
head 14.9321 -5.85086 1.54844
rclavicle -2.8625e-014 -2.38542e-014
rhumerus 5.11382 -14.5208 -82.2812
rradius 40.3151
rwrist -27.2731
rhand -27.8726 -17.7328
rfingers 7.12502
rthumb -1.26282 -47.7088
lclavicle -2.8625e-014 -2.38542e-014
lhumerus -1.67772 -56.871 92.4123
lradius 58.8613
lwrist 69.4439
lhand -12.88 45.0104
lfingers 7.12502
lthumb 13.2089 -1005.43
rfemur -33.1606 -3.36106 14.1332
rtibia 35.87
rfoot -18.4892 -4.79806
rtoes 6.09865
lfemur -32.1669 1.54805 -22.3173
ltibia 30.1441
lfoot -10.3804 5.03609
ltoes -19.0941
